<svg xmlns="http://www.w3.org/2000/svg" viewBox="0 0 64 64">
  <!-- Document body -->
  <path d="M6 6 C6 4 8 2 10 2 L38 2 L38 18 L54 18 L54 58 C54 60 52 62 50 62 L10 62 C8 62 6 60 6 58 Z" fill="#2563eb"/>
  <!-- Folded corner -->
  <path d="M38 2 L54 18 L38 18 Z" fill="#1d4ed8"/>
  <!-- Content lines -->
  <line x1="14" y1="30" x2="40" y2="30" stroke="white" stroke-width="3.5" stroke-linecap="round" opacity="0.85"/>
  <line x1="14" y1="39" x2="40" y2="39" stroke="white" stroke-width="3.5" stroke-linecap="round" opacity="0.85"/>
  <line x1="14" y1="48" x2="30" y2="48" stroke="white" stroke-width="3.5" stroke-linecap="round" opacity="0.6"/>
  <!-- Badge background (white ring for contrast) -->
  <circle cx="46" cy="46" r="17" fill="white"/>
  <!-- Green badge -->
  <circle cx="46" cy="46" r="14" fill="#16a34a"/>
  <!-- Checkmark -->
  <polyline points="38.5,46 44,51.5 53.5,39.5" fill="none" stroke="white" stroke-width="3.5" stroke-linecap="round" stroke-linejoin="round"/>
</svg>
